<svg width="160" height="46" viewBox="0 0 160 46" fill="none" xmlns="http://www.w3.org/2000/svg">
<path d="M1 25.5027C1 25.5027 7.3369 25.5027 12.8289 25.5027C18.3209 25.5027 19.1658 15.3636 23.3904 15.3636C27.615 15.3636 27.615 17.8984 29.3048 22.9679C30.9947 28.0374 31.6523 33.3519 35.7661 33.3371C39.8798 33.3222 41.5371 29.0413 43.0794 23.0911C44.6217 17.141 45.6688 10.1837 50.3267 10.1837C54.9846 10.1837 55.6233 14.7232 57.7014 24.9332C59.9041 35.7547 60.4486 39.6845 64.5624 39.6845C68.6761 39.6845 69.9127 32.7398 71.4186 25.4492C74.335 11.3299 75.5324 0.999999 80.1032 1C84.6741 1 84.342 5.6565 86.5024 25.4492C88.3954 42.7919 91.1572 45.3877 95.271 45.3877C100.756 45.3877 102.02 30.7367 102.924 25.2115C103.828 19.6862 105.568 8.10056 110.438 7.95732C115.308 7.81408 115.89 15.1929 117.674 23.4026C119.457 31.6122 120.823 36.7606 124.492 36.7606C128.16 36.7606 129.779 28.2727 130.892 22.2894C132.006 16.3061 134.075 12.8274 137.989 12.8274C143.791 12.8274 143.137 25.4122 150.234 25.4492C158.026 25.4898 159 25.4898 159 25.4898" stroke="white" stroke-opacity="0.22" stroke-width="0.84492" stroke-linecap="round"/>
<path d="M32.6923 22.3648C33.8938 22.5988 34.7675 22.9005 35.3137 23.2697C35.8442 23.6338 36.1094 24.1487 36.1094 24.8144C36.1094 25.5166 35.7687 26.0861 35.0874 26.523C34.4113 26.9598 33.5271 27.1783 32.4349 27.1783C30.8642 27.1783 29.4209 26.8376 28.105 26.1563L28.5419 25.0017C29.0048 25.2669 29.5821 25.4932 30.2739 25.6804C30.9656 25.8676 31.6755 25.9613 32.4037 25.9613C33.0434 25.9613 33.5661 25.8598 33.9718 25.657C34.3775 25.4542 34.5803 25.1785 34.5803 24.83C34.5803 24.4868 34.3853 24.2163 33.9952 24.0187C33.5947 23.821 32.9368 23.6364 32.0214 23.4648C30.8304 23.2411 29.954 22.9447 29.3923 22.5754C28.8254 22.2113 28.5419 21.699 28.5419 21.0385C28.5419 20.378 28.8696 19.8293 29.5249 19.3924C30.1802 18.9555 31.1242 18.737 32.3569 18.737C33.5895 18.737 34.7415 18.9659 35.813 19.4236L35.5087 20.5626C35.1602 20.4066 34.6739 20.2609 34.0498 20.1257C33.4361 20.0009 32.8458 19.9385 32.2789 19.9385C31.5923 19.9385 31.0436 20.0425 30.6327 20.2505C30.2167 20.4638 30.0086 20.7264 30.0086 21.0385C30.0086 21.3454 30.2167 21.5976 30.6327 21.7952C31.0644 21.9981 31.751 22.1879 32.6923 22.3648ZM42.7173 18.737C44.2152 18.737 45.453 19.1297 46.4308 19.9151C47.4138 20.7056 47.9053 21.7198 47.9053 22.9577C47.9001 24.1903 47.406 25.2019 46.423 25.9925C45.4348 26.783 44.1944 27.1783 42.7017 27.1783C41.2038 27.1783 39.9686 26.7804 38.996 25.9847C38.013 25.1889 37.5215 24.1721 37.5215 22.9343C37.5215 21.6964 38.0156 20.6848 39.0038 19.8995C39.9816 19.1141 41.2194 18.7266 42.7173 18.737ZM40.0804 24.9783C40.7877 25.5036 41.6667 25.7662 42.7173 25.7662C43.7627 25.7662 44.6391 25.5036 45.3464 24.9783C46.0434 24.453 46.3918 23.7794 46.3918 22.9577C46.4022 22.1359 46.0564 21.4572 45.3542 20.9215C44.6469 20.391 43.7679 20.1257 42.7173 20.1257C41.6615 20.1257 40.7825 20.391 40.0804 20.9215C39.3783 21.4572 39.0272 22.1359 39.0272 22.9577C39.0272 23.7794 39.3783 24.453 40.0804 24.9783ZM52.2664 24.9861C52.9321 25.5166 53.7513 25.7818 54.7239 25.7818C55.6964 25.7818 56.5078 25.514 57.1579 24.9783C57.8133 24.4374 58.1409 23.7222 58.1409 22.8328V18.9321H59.6232V26.9677H58.6168L58.2657 25.3683H58.2033C57.8029 25.93 57.2593 26.3721 56.5728 26.6946C55.9071 27.0171 55.1555 27.1783 54.3182 27.1783C53.0127 27.1783 51.9257 26.796 51.0571 26.0315C50.1938 25.2773 49.7699 24.3047 49.7855 23.1137V18.9321H51.2678V22.8328C51.2678 23.7378 51.6006 24.4556 52.2664 24.9861ZM69.2815 20.9215C68.621 20.391 67.8044 20.1257 66.8318 20.1257C65.854 20.1257 65.0401 20.3936 64.3899 20.9293C63.7346 21.4702 63.407 22.1879 63.407 23.0825V26.9677H61.9169V18.9321H62.9233L63.2821 20.547H63.3445C63.7502 19.9801 64.2937 19.5354 64.9751 19.2129C65.646 18.8957 66.3949 18.737 67.2219 18.737C68.5274 18.737 69.6144 19.1167 70.4829 19.8761C71.3463 20.6354 71.7728 21.608 71.7624 22.7938V26.9677H70.2801V23.0825C70.2801 22.1827 69.9472 21.4624 69.2815 20.9215ZM78.2142 18.737C79.0984 18.7266 79.8864 18.9113 80.5781 19.2909C81.2854 19.6758 81.829 20.1907 82.2086 20.8357H82.2554V15.4136H83.7377V26.9677H82.7313L82.3022 24.9861H82.2554C81.8758 25.6518 81.3297 26.1849 80.6171 26.5854C79.9098 26.9807 79.114 27.1783 78.2299 27.1783C76.9088 27.1783 75.8114 26.7804 74.9376 25.9847C74.0638 25.1889 73.6269 24.1799 73.6269 22.9577C73.6269 21.7198 74.0612 20.7056 74.9298 19.9151C75.7932 19.1297 76.888 18.737 78.2142 18.737ZM78.6901 25.7662C79.7043 25.7662 80.5521 25.5036 81.2334 24.9783C81.9148 24.453 82.2554 23.7794 82.2554 22.9577C82.2554 22.1411 81.9148 21.4624 81.2334 20.9215C80.5573 20.391 79.7121 20.1257 78.6979 20.1257C77.6837 20.1257 76.8334 20.391 76.1468 20.9215C75.4603 21.4572 75.117 22.1359 75.117 22.9577C75.117 23.7846 75.4629 24.4582 76.1546 24.9783C76.8464 25.5036 77.6915 25.7662 78.6901 25.7662ZM96.3138 25.6414H96.3606L98.9195 18.9321H100.519L97.4372 26.9677H95.44L92.8031 20.9761H92.7407L90.1038 26.9677H88.1066L85.0172 18.9321H86.6165L89.1754 25.6414H89.2378L92.1166 18.9321H93.4272L96.3138 25.6414ZM105.13 27.1783C103.98 27.1783 103.052 26.9338 102.344 26.4449C101.632 25.9613 101.276 25.3371 101.276 24.5726C101.276 23.7664 101.66 23.1189 102.43 22.63C103.2 22.1359 104.334 21.8889 105.832 21.8889C106.976 21.8889 107.998 22.0371 108.898 22.3335V22.0605C108.898 21.4312 108.622 20.9501 108.071 20.6172C107.519 20.2791 106.713 20.1101 105.652 20.1101C105.169 20.1101 104.667 20.1569 104.147 20.2505C103.58 20.3598 103.177 20.4586 102.937 20.547L102.508 20.6874L101.993 19.4548C102.071 19.4132 102.248 19.3456 102.524 19.2519C102.794 19.1687 103.252 19.0595 103.897 18.9243C104.537 18.7995 105.161 18.737 105.769 18.737C108.879 18.737 110.435 19.8839 110.435 22.1775V26.9677H109.491L109.093 25.4151H109.022C108.253 26.5906 106.955 27.1783 105.13 27.1783ZM106.152 23.0201C105.054 23.0201 104.209 23.1579 103.616 23.4336C103.028 23.7092 102.734 24.0785 102.734 24.5414C102.734 24.9887 102.984 25.3475 103.483 25.618C103.988 25.8884 104.685 26.0237 105.574 26.0237C106.521 26.0237 107.309 25.7792 107.938 25.2903C108.567 24.8014 108.882 24.2371 108.882 23.5974V23.3555C108.133 23.1319 107.223 23.0201 106.152 23.0201ZM116.434 25.735H116.496L119.898 18.9321H121.513L117.425 26.9677H115.49L111.402 18.9321H113.017L116.434 25.735ZM127.067 18.737C128.555 18.737 129.772 19.1271 130.719 19.9073C131.66 20.6926 132.131 21.7094 132.131 22.9577C132.131 23.2229 132.12 23.457 132.099 23.6598H123.549C123.752 24.3255 124.22 24.843 124.953 25.2123C125.692 25.5816 126.607 25.7662 127.699 25.7662C129.078 25.7662 130.191 25.5114 131.038 25.0017L131.343 26.3123C130.396 26.8896 129.176 27.1783 127.684 27.1783C125.9 27.1783 124.498 26.7882 123.479 26.0081C122.449 25.2331 121.934 24.2163 121.934 22.9577C121.934 21.7094 122.412 20.6926 123.369 19.9073C124.321 19.1271 125.554 18.737 127.067 18.737ZM123.487 22.4272H130.641C130.635 21.7822 130.274 21.2361 129.556 20.7888C128.849 20.3468 128.024 20.1257 127.083 20.1257C126.136 20.1257 125.338 20.3312 124.688 20.742C124.027 21.1529 123.627 21.7146 123.487 22.4272Z" fill="white"/>
</svg>
