<svg width="272" height="272" viewBox="0 0 272 272" fill="none" xmlns="http://www.w3.org/2000/svg">
<path d="M92.6026 208.917C93.5822 209.495 94.3422 210.235 94.8826 211.135C95.4208 212.026 95.6666 212.971 95.6203 213.971L95.6706 214L99.2345 207.963L100.402 208.652L93.0409 221.121L92.2181 220.635L93.2358 218.202L93.1686 218.162C92.3228 218.674 91.3731 218.921 90.3195 218.903C89.2747 218.883 88.2514 218.577 87.2494 217.985C85.822 217.143 84.8848 216.019 84.4378 214.616C83.9885 213.203 84.1481 211.833 84.9168 210.505C85.6999 209.179 86.8213 208.372 88.2807 208.087C89.7458 207.804 91.1864 208.081 92.6026 208.917ZM88.2598 217.098C89.4297 217.789 90.6021 218.047 91.777 217.873C92.9518 217.698 93.8334 217.113 94.4216 216.116C95.0098 215.12 95.092 214.066 94.6682 212.956C94.2534 211.843 93.4638 210.943 92.2995 210.255C91.1184 209.558 89.932 209.292 88.7403 209.456C87.5576 209.619 86.6721 210.198 86.0839 211.194C85.4957 212.191 85.4146 213.249 85.8407 214.368C86.2723 215.491 87.0787 216.401 88.2598 217.098Z" fill="white"/>
<path d="M80.6624 200.633L81.6971 201.508L72.3707 212.533L71.336 211.657L80.6624 200.633Z" fill="white"/>
<path d="M72.4294 192.175C73.3619 193.259 73.8823 194.337 73.9906 195.41C74.1038 196.479 73.8031 197.321 73.0885 197.935C72.3345 198.584 71.4059 198.735 70.3026 198.389C69.1944 198.048 68.0215 197.158 66.7838 195.719C65.8809 194.669 65.1694 193.558 64.6492 192.385L64.2574 192.722C62.8973 193.891 63.1451 195.56 65.0009 197.728C65.4078 198.201 65.8722 198.646 66.3939 199.063C66.9418 199.501 67.3632 199.812 67.6582 199.995C67.9666 200.184 68.1392 200.28 68.1759 200.283L67.5823 201.372C66.0339 200.449 64.8273 199.485 63.9626 198.479C61.5423 195.665 61.3622 193.373 63.4222 191.601L68.131 187.551L68.716 188.231L67.3323 189.897L67.3832 189.956C69.213 189.651 70.8951 190.391 72.4294 192.175ZM67.4253 194.82C68.4129 195.968 69.3289 196.719 70.1735 197.073C71.0131 197.431 71.6916 197.388 72.2091 196.943C72.692 196.527 72.862 195.922 72.7189 195.128C72.585 194.334 72.1281 193.484 71.3482 192.577C70.4963 191.587 69.529 190.995 68.4464 190.803C67.3638 190.611 66.4628 190.825 65.7433 191.444L65.3885 191.749C65.8265 192.727 66.5055 193.75 67.4253 194.82Z" fill="white"/>
<path d="M60.4697 177.758L60.4367 177.699L50.6724 178.189L50.0079 176.986L62.1628 176.367C63.8007 176.294 65.0189 176.449 65.8172 176.833C66.6274 177.224 67.3688 178.029 68.0412 179.247C68.2737 179.668 68.4607 180.114 68.6021 180.586L67.484 181.203C67.3213 180.639 67.13 180.158 66.91 179.76C66.4136 178.861 65.8356 178.245 65.1761 177.911C64.5197 177.583 63.6266 177.478 62.4968 177.597L62.0923 177.631L55.6918 187.28L55.0084 186.042L60.4697 177.758Z" fill="white"/>
<path d="M47.3541 160.677C47.6197 160.193 48.0147 159.875 48.5391 159.723C49.0696 159.569 49.5703 159.626 50.0412 159.896C50.522 160.176 50.8376 160.575 50.9882 161.093C51.1406 161.617 51.0862 162.117 50.8249 162.592C50.5718 163.072 50.1799 163.389 49.6493 163.543C49.125 163.695 48.6212 163.639 48.1378 163.373C47.6625 163.112 47.3486 162.719 47.1962 162.195C47.0457 161.677 47.0983 161.171 47.3541 160.677Z" fill="white"/>
<path d="M40.7175 131.57C40.7128 130.082 41.1153 128.891 41.9251 127.998C42.7283 127.111 43.7994 126.666 45.1385 126.662L50.9886 126.643L50.9928 127.979L45.3864 127.997C44.3204 128 43.4895 128.36 42.8937 129.077C42.3045 129.787 42.0117 130.731 42.0154 131.907C42.0058 132.986 42.3109 133.902 42.9308 134.654C43.5572 135.413 44.3839 135.79 45.411 135.787L51.0174 135.769L51.0216 137.105L45.4152 137.123C44.3491 137.126 43.5182 137.486 42.9225 138.203C42.3332 138.914 42.0404 139.857 42.0441 141.034C42.0345 142.113 42.3396 143.028 42.9595 143.78C43.5859 144.539 44.4127 144.917 45.4397 144.913L51.0461 144.896L51.0504 146.251L41.0076 146.283L41.0046 145.327L42.9441 145.058L42.9439 144.999C42.2665 144.572 41.7316 143.979 41.3392 143.22C40.9468 142.467 40.7492 141.626 40.7462 140.696C40.7428 139.611 40.9706 138.674 41.4297 137.886C41.8822 137.098 42.5174 136.527 43.3353 136.174L43.3351 136.096C42.5344 135.728 41.8988 135.142 41.4282 134.337C40.9577 133.526 40.7208 132.604 40.7175 131.57Z" fill="white"/>
<path d="M52.9828 117.964L52.703 119.29L42.8765 117.217L43.1564 115.891L52.9828 117.964ZM38.8405 116.415C38.6809 116.195 38.632 115.939 38.6937 115.647C38.7541 115.36 38.903 115.143 39.1404 114.993C39.3778 114.844 39.6333 114.798 39.9068 114.856C40.1803 114.914 40.3891 115.058 40.5333 115.287C40.6838 115.518 40.7289 115.777 40.6685 116.063C40.6081 116.349 40.4631 116.565 40.2334 116.709C40.0087 116.861 39.7596 116.908 39.4861 116.85C39.2126 116.792 38.9974 116.647 38.8405 116.415Z" fill="white"/>
<path d="M48.5583 98.7174L49.1231 97.2214L51.9986 103.518L58.6185 100.504L58.0262 102.073L52.4662 104.653L52.4525 104.69L54.9233 110.292L54.3309 111.861L51.3512 105.233L45.0318 108.058L45.5966 106.562L51.0112 104.146L51.025 104.109L48.5583 98.7174Z" fill="white"/>
<path d="M59.8479 84.5551C60.3882 84.444 60.8863 84.5387 61.3422 84.8391C61.8036 85.1432 62.0844 85.5617 62.1846 86.0948C62.2831 86.6424 62.1839 87.1414 61.887 87.5919C61.5866 88.0478 61.1707 88.3304 60.6395 88.4396C60.1101 88.5578 59.6147 88.4649 59.1533 88.1609C58.6974 87.8605 58.4139 87.4402 58.3028 86.8999C58.1936 86.3686 58.2892 85.875 58.5896 85.4191C58.8865 84.9686 59.3059 84.6806 59.8479 84.5551Z" fill="white"/>
<path d="M77.3991 73.1609C78.4714 72.1284 79.1771 71.0292 79.5164 69.8634L80.5766 70.6833C80.154 71.8844 79.4089 72.9989 78.3413 74.0269C76.871 75.4426 75.3272 76.2478 73.71 76.4425C72.0925 76.6464 70.7472 76.1911 69.6742 75.0767C68.5921 73.953 68.1765 72.589 68.4275 70.9847C68.6877 69.3806 69.5482 67.8752 71.0091 66.4685C71.9877 65.5262 72.993 64.874 74.025 64.5119L74.5825 65.6671C73.6704 66.0039 72.7604 66.6004 71.8524 67.4567C70.7052 68.5614 70.0187 69.7368 69.7929 70.9829C69.5671 72.2291 69.8599 73.2736 70.6715 74.1164C71.4741 74.9499 72.5092 75.2751 73.7768 75.0922C75.0352 74.9183 76.2426 74.2745 77.3991 73.1609Z" fill="white"/>
<path d="M86.3048 54.864C87.6845 54.0178 89.0824 53.7172 90.4984 53.962C91.9067 54.2193 92.9965 54.9768 93.7679 56.2346L96.4951 60.6814L95.3397 61.39L92.74 57.151C92.1147 56.1314 91.2233 55.542 90.0657 55.3826C88.908 55.2233 87.7723 55.4852 86.6586 56.1682C85.5503 56.8479 84.8104 57.7364 84.4386 58.8336C84.0724 59.9275 84.202 60.9842 84.8273 62.0038L87.427 66.2427L86.2717 66.9513L78.7121 54.625L79.8674 53.9165L83.3337 59.5684L83.3836 59.5378C83.4093 58.6223 83.6767 57.7529 84.186 56.9297C84.6953 56.1065 85.4016 55.4179 86.3048 54.864Z" fill="white"/>
<path d="M104.975 57.0262L103.717 57.5305L99.98 48.2087L101.238 47.7045L104.975 57.0262ZM98.4038 44.4077C98.4977 44.1529 98.6835 43.9699 98.961 43.8587C99.2325 43.7498 99.4963 43.7526 99.7523 43.8671C100.008 43.9816 100.188 44.1686 100.292 44.428C100.396 44.6874 100.393 44.9409 100.282 45.1885C100.174 45.442 99.9835 45.6232 99.712 45.7321C99.4405 45.8409 99.181 45.8399 98.9335 45.729C98.6823 45.6266 98.5047 45.4457 98.4007 45.1862C98.2967 44.9268 98.2978 44.6673 98.4038 44.4077Z" fill="white"/>
<path d="M113.426 54.2146L112.122 54.5836L108.191 40.6887L109.495 40.3198L113.426 54.2146Z" fill="white"/>
<path d="M122.183 52.2931L120.847 52.5226L118.402 38.2909L119.737 38.0614L122.183 52.2931Z" fill="white"/>
<path d="M137.536 44.1798C137.925 44.5713 138.118 45.0401 138.116 45.5861C138.114 46.1387 137.917 46.6026 137.525 46.9781C137.121 47.36 136.649 47.5499 136.109 47.5477C135.563 47.5455 135.099 47.3519 134.717 46.9669C134.329 46.5883 134.135 46.1228 134.138 45.5702C134.14 45.0242 134.337 44.557 134.728 44.1685C135.113 43.7866 135.579 43.5967 136.125 43.5989C136.664 43.601 137.135 43.7946 137.536 44.1798Z" fill="white"/>
<path d="M151.629 52.6143L150.295 52.3741L152.854 38.1625L154.188 38.4026L151.629 52.6143Z" fill="white"/>
<path d="M160.398 54.7429L159.097 54.3636L161.908 44.7222L163.209 45.1015L160.398 54.7429ZM163.013 40.7584C163.244 40.6159 163.503 40.5864 163.79 40.6701C164.071 40.752 164.277 40.917 164.408 41.165C164.538 41.413 164.565 41.6712 164.486 41.9396C164.408 42.2079 164.249 42.4053 164.009 42.5317C163.767 42.6643 163.506 42.6897 163.225 42.6078C162.944 42.5259 162.741 42.365 162.614 42.125C162.48 41.8895 162.452 41.6375 162.53 41.3692C162.608 41.1008 162.769 40.8972 163.013 40.7584Z" fill="white"/>
<path d="M174.06 53.9673C175.345 54.8741 176.188 55.6628 176.588 56.3334C176.991 57.0272 177.027 57.7342 176.695 58.4546C176.344 59.2163 175.683 59.6666 174.71 59.8055C173.737 59.9444 172.651 59.738 171.453 59.1861C169.705 58.3815 168.296 57.246 167.225 55.7797L168.046 54.9985C168.929 56.3284 170.215 57.382 171.904 58.1595C172.731 58.54 173.472 58.7096 174.128 58.6681C174.772 58.6212 175.206 58.3556 175.429 57.8715C175.635 57.4227 175.559 56.9584 175.201 56.4784C174.827 55.9843 174.119 55.376 173.078 54.6533C171.816 53.7574 170.976 52.97 170.559 52.2913C170.13 51.607 170.08 50.9077 170.409 50.1933C170.74 49.4729 171.382 49.0349 172.334 48.8792C173.277 48.7266 174.392 48.9467 175.679 49.5393C177.144 50.2135 178.315 51.0745 179.192 52.1224L178.465 52.9791C178.15 52.5908 177.687 52.1665 177.076 51.7063C176.464 51.246 175.816 50.8583 175.132 50.5429C174.305 50.1623 173.564 49.9928 172.908 50.0343C172.252 50.0758 171.823 50.315 171.622 50.7519C171.432 51.1652 171.522 51.6146 171.892 52.1C172.263 52.5854 172.985 53.2079 174.06 53.9673Z" fill="white"/>
<path d="M187.485 67.2623C188.228 67.7882 188.978 68.1565 189.737 68.3673L189.168 69.4577C188.211 69.1223 187.369 68.6973 186.642 68.1827C184.393 66.5899 183.976 64.7935 185.393 62.7936L188.52 58.3774L185.846 56.4841L186.539 55.5053L189.213 57.3986L191.183 54.9707L192.122 55.6356L190.319 58.1819L194.871 61.405L194.178 62.3838L189.626 59.1606L186.628 63.3939C185.603 64.8421 185.888 66.1315 187.485 67.2623Z" fill="white"/>
<path d="M201.312 68.6542C202.845 68.8621 204.24 69.6422 205.497 70.9944C206.745 72.3371 207.417 73.776 207.512 75.3111C207.594 76.8503 207.066 78.1487 205.928 79.2063C205.794 79.3302 205.619 79.4848 205.4 79.67L197.774 71.4637C197.172 72.3063 196.998 73.2934 197.251 74.425C197.504 75.5565 198.146 76.677 199.177 77.7864C200.399 79.1005 201.639 79.9048 202.897 80.1993L202.204 81.2432C200.85 80.9039 199.529 80.0415 198.242 78.6559C196.777 77.0799 195.966 75.4956 195.808 73.903C195.645 72.3148 196.14 70.9853 197.292 69.9144C198.425 68.8613 199.765 68.4412 201.312 68.6542ZM198.569 70.6442L205.32 77.9077C206.058 77.2127 206.343 76.2779 206.175 75.1035C206.006 73.9383 205.468 72.8676 204.56 71.8915C203.649 70.9106 202.643 70.3012 201.544 70.0632C200.421 69.8197 199.43 70.0134 198.569 70.6442Z" fill="white"/>
<path d="M212.073 98.0319L216.396 95.5758C217.436 94.985 218.054 94.111 218.249 92.9537C218.447 91.8021 218.221 90.6554 217.573 89.5137C216.931 88.3833 216.067 87.614 214.983 87.2057C213.902 86.803 212.842 86.8971 211.802 87.4878L207.478 89.944L206.809 88.7655L215.541 83.8051L216.013 84.6359L214.23 86.0186L214.259 86.0694C215.188 86.125 216.055 86.4211 216.861 86.9577C217.67 87.5 218.342 88.243 218.879 89.1869C219.681 90.5999 219.938 92.0127 219.649 93.4253C219.351 94.8355 218.561 95.905 217.278 96.6338L212.742 99.2104L212.073 98.0319Z" fill="white"/>
<path d="M224.722 111.933C224.455 112.415 224.059 112.732 223.534 112.882C223.003 113.034 222.502 112.975 222.032 112.704C221.553 112.422 221.239 112.022 221.09 111.503C220.939 110.978 220.996 110.479 221.259 110.004C221.514 109.526 221.907 109.21 222.438 109.058C222.963 108.907 223.466 108.966 223.949 109.233C224.423 109.496 224.736 109.89 224.886 110.415C225.035 110.934 224.98 111.44 224.722 111.933Z" fill="white"/>
<path d="M222.009 130.93L222.013 131.008L231.106 135.085L231.19 136.555L220.863 131.895L220.764 130.182L230.489 124.358L230.573 125.818L222.009 130.93Z" fill="white"/>
<path d="M220.517 144.891L220.646 143.542L230.643 144.501L230.514 145.85L220.517 144.891ZM234.744 144.845C234.927 145.045 235.004 145.294 234.976 145.592C234.948 145.883 234.824 146.116 234.605 146.291C234.386 146.466 234.137 146.54 233.859 146.513C233.581 146.487 233.357 146.367 233.188 146.155C233.013 145.942 232.939 145.69 232.967 145.399C232.995 145.108 233.115 144.878 233.327 144.709C233.533 144.533 233.775 144.458 234.054 144.485C234.332 144.511 234.562 144.631 234.744 144.845Z" fill="white"/>
<path d="M227.846 161.394C227.412 162.994 226.578 164.199 225.341 165.009C224.097 165.823 222.728 166.028 221.235 165.624C219.762 165.219 218.694 164.35 218.031 163.019C217.366 161.694 217.25 160.235 217.681 158.641C217.985 157.518 218.504 156.584 219.238 155.84C219.979 155.092 220.832 154.605 221.795 154.381L221.815 154.306L219.387 153.275L219.637 152.352L233.575 156.127L233.221 157.435L226.492 155.613L226.476 155.669C227.207 156.352 227.691 157.2 227.929 158.214C228.171 159.236 228.143 160.296 227.846 161.394ZM219.024 158.57C218.665 159.894 218.724 161.109 219.199 162.214C219.676 163.313 220.472 164.013 221.589 164.316C222.706 164.618 223.748 164.415 224.714 163.707C225.682 162.993 226.345 161.974 226.703 160.65C227.058 159.339 226.996 158.14 226.516 157.054C226.035 155.967 225.237 155.273 224.12 154.97C223.003 154.668 221.963 154.865 221.001 155.56C220.038 156.256 219.379 157.259 219.024 158.57Z" fill="white"/>
<path d="M220.815 176.463C221.109 177.982 220.815 179.553 219.936 181.176C219.062 182.788 217.913 183.884 216.489 184.465C215.057 185.035 213.658 184.949 212.292 184.209C212.132 184.122 211.929 184.005 211.684 183.857L217.022 174.008C216.032 173.707 215.041 173.858 214.049 174.459C213.058 175.061 212.202 176.027 211.48 177.359C210.625 178.936 210.259 180.368 210.383 181.655L209.172 181.331C209.061 179.94 209.456 178.413 210.357 176.75C211.382 174.858 212.624 173.583 214.083 172.925C215.535 172.263 216.953 172.307 218.336 173.056C219.697 173.794 220.523 174.929 220.815 176.463ZM218.053 174.5L213.328 183.218C214.223 183.695 215.2 183.667 216.259 183.131C217.309 182.599 218.151 181.747 218.786 180.575C219.424 179.398 219.68 178.25 219.554 177.132C219.426 175.991 218.926 175.113 218.053 174.5Z" fill="white"/>
<path d="M203.48 198.624C202.929 198.653 202.451 198.484 202.046 198.118C201.636 197.748 201.421 197.292 201.403 196.75C201.388 196.193 201.561 195.715 201.923 195.315C202.289 194.909 202.742 194.693 203.284 194.665C203.825 194.628 204.301 194.794 204.711 195.165C205.116 195.53 205.333 195.989 205.361 196.54C205.389 197.081 205.22 197.555 204.854 197.96C204.493 198.361 204.035 198.582 203.48 198.624Z" fill="white"/>
<path d="M183.473 206.317C184.413 205.675 185.405 205.301 186.449 205.194C187.485 205.085 188.445 205.263 189.33 205.729L189.378 205.696L185.425 199.907L186.544 199.143L194.709 211.1L193.92 211.639L192.149 209.684L192.084 209.728C192.189 210.712 192.01 211.676 191.546 212.623C191.084 213.56 190.373 214.357 189.412 215.013C188.043 215.948 186.628 216.32 185.168 216.129C183.698 215.936 182.525 215.21 181.649 213.95C180.78 212.678 180.526 211.321 180.887 209.878C181.253 208.431 182.115 207.244 183.473 206.317ZM189.038 213.722C190.16 212.955 190.891 212.003 191.232 210.866C191.572 209.728 191.416 208.681 190.764 207.726C190.111 206.77 189.192 206.248 188.007 206.161C186.823 206.064 185.673 206.397 184.556 207.159C183.424 207.933 182.679 208.894 182.322 210.043C181.967 211.183 182.116 212.23 182.768 213.186C183.421 214.141 184.344 214.664 185.539 214.753C186.739 214.839 187.905 214.495 189.038 213.722Z" fill="white"/>
<path d="M168.189 214.521C169.518 213.994 170.707 213.855 171.757 214.103C172.804 214.345 173.501 214.904 173.849 215.78C174.215 216.705 174.055 217.632 173.368 218.562C172.683 219.497 171.458 220.315 169.694 221.015C168.407 221.525 167.124 221.835 165.845 221.943L166.036 222.423C166.697 224.091 168.355 224.402 171.01 223.356C171.591 223.126 172.163 222.833 172.728 222.476C173.32 222.101 173.751 221.804 174.021 221.585C174.301 221.356 174.448 221.224 174.462 221.19L175.298 222.107C173.92 223.269 172.614 224.094 171.382 224.583C167.931 225.951 165.705 225.373 164.704 222.847L162.414 217.073L163.248 216.743L164.371 218.594L164.443 218.566C164.753 216.737 166.001 215.389 168.189 214.521ZM169.054 220.115C170.462 219.557 171.471 218.936 172.081 218.254C172.694 217.577 172.875 216.922 172.623 216.287C172.388 215.695 171.872 215.337 171.075 215.212C170.281 215.08 169.328 215.234 168.216 215.675C167.002 216.156 166.127 216.877 165.591 217.838C165.056 218.798 164.964 219.719 165.313 220.602L165.486 221.037C166.553 220.942 167.743 220.635 169.054 220.115Z" fill="white"/>
<path d="M155.414 226.635L155.357 226.646C155.02 227.566 154.442 228.355 153.623 229.011C152.81 229.667 151.836 230.105 150.701 230.327L150.471 229.05C151.861 228.872 152.993 228.31 153.868 227.364C154.743 226.418 155.082 225.342 154.886 224.135L153.926 219.216L155.256 218.957L157.181 228.813L156.224 229L155.414 226.635Z" fill="white"/>
<path d="M135.833 222.136C134.924 222.158 134.101 222.311 133.367 222.595L133.172 221.381C134.14 221.078 135.069 220.916 135.96 220.894C138.715 220.828 140.122 222.02 140.181 224.47L140.31 229.88L143.585 229.802L143.614 231.001L140.339 231.079L140.209 234.203L139.059 234.231L138.984 231.112L133.408 231.245L133.38 230.046L138.955 229.913L138.831 224.727C138.789 222.953 137.789 222.089 135.833 222.136Z" fill="white"/>
<path d="M121.669 221.173L121.602 221.162L115.918 229.117L114.563 228.89L121.631 218.982C122.592 217.653 123.47 216.795 124.267 216.408C125.077 216.017 126.168 215.936 127.54 216.166C128.015 216.245 128.48 216.376 128.938 216.558L128.726 217.818C128.184 217.595 127.688 217.446 127.239 217.371C126.226 217.201 125.384 217.271 124.713 217.58C124.048 217.891 123.411 218.525 122.802 219.484L122.577 219.823L126.16 230.833L124.765 230.599L121.669 221.173Z" fill="white"/>
<path d="M100.136 220.834C99.9222 220.325 99.9186 219.818 100.125 219.313C100.334 218.801 100.69 218.445 101.194 218.243C101.712 218.041 102.221 218.041 102.72 218.245C103.226 218.452 103.583 218.805 103.793 219.305C104.012 219.801 104.017 220.305 103.808 220.817C103.601 221.322 103.244 221.682 102.736 221.896C102.235 222.106 101.733 222.107 101.227 221.901C100.728 221.697 100.364 221.341 100.136 220.834Z" fill="white"/>
</svg>
